<?xml version="1.0" encoding="UTF-8"?>
<svg id="flags_22px" data-name="flags 22px" xmlns="http://www.w3.org/2000/svg" viewBox="0 0 18 18">
  <defs>
    <style>
      .cls-1 {
        fill: #f5f5f5;
      }

      .cls-2 {
        fill: #e60013;
      }
    </style>
  </defs>
  <path class="cls-1" d="m9,0C4.03,0,0,4.03,0,9.01s3.89,8.85,8.73,8.99h.54c4.84-.14,8.73-4.11,8.73-8.99S13.97,0,9,0Zm0,13.55c-2.52,0-4.55-2.04-4.55-4.56s2.04-4.56,4.55-4.56,4.55,2.04,4.55,4.56-2.04,4.56-4.55,4.56Z"/>
  <path class="cls-2" d="m9,4.44c-2.52,0-4.55,2.04-4.55,4.56s2.04,4.56,4.55,4.56,4.55-2.04,4.55-4.56-2.04-4.56-4.55-4.56Z"/>
</svg>