<svg xmlns="http://www.w3.org/2000/svg" width="30.228" height="22.699" viewBox="0 0 30.228 22.699">
  <path id="Path_596845" data-name="Path 596845" d="M17.834,4.307a5.868,5.868,0,0,1,4.8,2.614A7.132,7.132,0,0,1,23.646,12.7a4.458,4.458,0,0,1,.538-.033,5.008,5.008,0,0,1,4.762,5.222,5.008,5.008,0,0,1-4.762,5.222H5.136a3,3,0,0,1-2.858-3.133,3.005,3.005,0,0,1,2.858-3.134h.319V15.447a5.778,5.778,0,0,1,1.991-4.42,4.733,4.733,0,0,1,4.409-.96,6.253,6.253,0,0,1,5.98-5.761Zm0-1.95a7.9,7.9,0,0,0-7.318,5.571c-3.672.014-6.684,3.2-6.836,7.219A5.141,5.141,0,0,0,.558,20.781a4.786,4.786,0,0,0,4.577,4.274H24.184a6.79,6.79,0,0,0,6.5-6.366,7.143,7.143,0,0,0-5.041-7.8c-.021-4.716-3.509-8.529-7.81-8.536Z" transform="translate(-0.499 -2.357)" fill="#464646"/>
</svg>
