<svg id="Perks-Icon-Credits-24x24" xmlns="http://www.w3.org/2000/svg" width="22" height="22" viewBox="0 0 22 22">
  <rect id="Canvas" width="22" height="22" fill="#ff13dc" opacity="0"/>
  <path id="Path_596468" data-name="Path 596468" d="M14.555,7.222c0-.245-.013-.489-.037-.726A6.108,6.108,0,0,0,6.5,14.519c.239.024.481.037.726.037a7.333,7.333,0,0,0,7.333-7.333Z" transform="translate(1.333 1.333)" fill="#464646"/>
  <path id="Path_596469" data-name="Path 596469" d="M5.889,13.223A7.333,7.333,0,0,1,15.35,6.206,7.333,7.333,0,1,0,6.206,15.35,7.327,7.327,0,0,1,5.889,13.223Z" transform="translate(0.222 0.222)" fill="#464646"/>
  <path id="Path_596470" data-name="Path 596470" d="M14.4,5.259a7.277,7.277,0,0,1,.28,1.4,6.111,6.111,0,1,1-8.023,8.023,7.276,7.276,0,0,1-1.4-.28A7.333,7.333,0,1,0,14.4,5.259Z" transform="translate(1.169 1.169)" fill="#464646"/>
</svg>
